<svg xmlns="http://www.w3.org/2000/svg" version="1.1" xmlns:xlink="http://www.w3.org/1999/xlink" xmlns:svgjs="http://svgjs.com/svgjs" width="512" height="512" x="0" y="0" viewBox="0 0 64 64" style="enable-background:new 0 0 512 512" xml:space="preserve" class=""><g><path fill="#393654" d="m3 32 3.656-.609A142.433 142.433 0 0 0 3.01 60.99a125.363 125.363 0 0 0 29.542-3.3L32 61h1.633a18.568 18.568 0 0 0 6.52-1.182 18.573 18.573 0 0 0 8.055-5.881l5.178-6.56a26 26 0 0 0-36.763-36.763l-6.917 6.112a19.84 19.84 0 0 0-5.442 7.9A19.843 19.843 0 0 0 3 31.6z" data-original="#f8664f" class=""></path><path fill="#393654" d="M7.144 56.954a135.027 135.027 0 0 1 3.394-24.6l1.471-5.913-4.379.73q.168-.574.379-1.138a15.9 15.9 0 0 1 4.345-6.312l7.01-6.193.088-.088a22 22 0 0 1 31.106 31.108l-.166.166-5.324 6.744a14.582 14.582 0 0 1-6.32 4.615 14.753 14.753 0 0 1-1.969.584l.724-4.34-5.929 1.5a118.7 118.7 0 0 1-24.43 3.137z" data-original="#cc5144" class=""></path><circle cx="35" cy="29" r="22" fill="#e9f1f2" data-original="#e9f1f2" class=""></circle><path fill="#d0d8da" d="M53.32 41.19A22 22 0 1 1 25.18 9.31a22.006 22.006 0 0 0 28.14 31.88z" data-original="#d0d8da" class=""></path><path fill="#656b76" d="M34.5 12.239h1v6.739h-1zM19.812 23.633l.31-.95 6.408 2.081-.309.951zM43.463 24.775l6.409-2.082.309.951-6.409 2.082zM39.931 35.66l.81-.588 3.962 5.452-.81.588zM25.311 40.56l3.963-5.452.809.588-3.963 5.452z" data-original="#656b76" class=""></path><path fill="#656b76" d="m35 18.478-9.052 6.577 3.458 10.641h11.188l3.458-10.641zM41.523 8 35 12.739 28.477 8a21.879 21.879 0 0 1 13.046 0z" data-original="#656b76" class=""></path><path fill="#464a51" d="m20.442 23.318-7.432 5.4a21.8 21.8 0 0 1 4.82-13.449z" data-original="#464a51" class=""></path><path fill="#656b76" d="m56.99 28.713-7.432-5.395 2.612-8.054a21.8 21.8 0 0 1 4.82 13.449zM53.805 40.421a22 22 0 0 1-12.989 9.8l3.175-9.8z" data-original="#656b76" class=""></path><path fill="#464a51" d="M29.184 50.216a22 22 0 0 1-12.989-9.8h9.814zM53.32 41.19a22.046 22.046 0 0 1-12.5 9.03L43 43.49c.16.01.33.01.5.01a21.848 21.848 0 0 0 9.82-2.31zM21.67 24.24l-1.86-.61.31-.95 1.45.47c.02.37.05.73.1 1.09z" data-original="#464a51" class=""></path><path fill="#464a51" d="m28.61 37.7-2.49 3.42-.81-.58L27.88 37c.24.24.49.47.73.7z" data-original="#464a51" class=""></path><path fill="#27263d" d="M7.452 52.976a.819.819 0 0 1-.085 0 1 1 0 0 1-.912-1.08A135.949 135.949 0 0 1 8.85 35.321a1 1 0 0 1 1.956.418A133.884 133.884 0 0 0 8.448 52.06a1 1 0 0 1-.996.916zM12.167 57.731a1 1 0 0 1-.064-2 112.2 112.2 0 0 0 16.9-2.36 1 1 0 0 1 .439 1.951 114.325 114.325 0 0 1-17.213 2.405c-.018.004-.04.004-.062.004zM11 51a1 1 0 0 1-.949-1.316l2-6a1 1 0 0 1 1.9.632l-2 6A1 1 0 0 1 11 51zM14 54a1 1 0 0 1-.316-1.949l6-2a1 1 0 1 1 .632 1.9l-6 2A1 1 0 0 1 14 54zM37.171 57H36a1 1 0 0 1 0-2h1.171a5.789 5.789 0 0 0 4.122-1.707 1 1 0 0 1 1.414 1.414A7.774 7.774 0 0 1 37.171 57zM8 29a1 1 0 0 1-1-1v-.171a7.774 7.774 0 0 1 2.293-5.536 1 1 0 0 1 1.414 1.414A5.789 5.789 0 0 0 9 27.829V28a1 1 0 0 1-1 1z" data-original="#ad4038" class=""></path><g fill="#f8664f"><path d="M46.88 61a1 1 0 0 1-.448-1.9 14.281 14.281 0 0 0 7.328-8.83l.157-.55a1 1 0 0 1 1.923.55l-.157.55a16.29 16.29 0 0 1-8.357 10.08 1 1 0 0 1-.446.1zM4 19a1 1 0 0 1-.831-1.555 14.608 14.608 0 0 1 5.61-4.952l.775-.388a1 1 0 0 1 .894 1.79l-.775.387a12.6 12.6 0 0 0-4.84 4.273A1 1 0 0 1 4 19zM4 12a1 1 0 0 1-.707-1.707A7.774 7.774 0 0 1 8.829 8H9a1 1 0 0 1 0 2h-.171a5.789 5.789 0 0 0-4.122 1.707A1 1 0 0 1 4 12zM53.88 61a1 1 0 0 1-.556-1.832 8.31 8.31 0 0 0 3.459-4.909l.126-.5a1 1 0 1 1 1.94.488l-.126.5a10.3 10.3 0 0 1-4.289 6.086 1 1 0 0 1-.554.167zM13 10a1 1 0 0 1 0-2 2.224 2.224 0 0 0 2-1.236l.105-.211a1 1 0 1 1 1.79.894l-.106.211A4.212 4.212 0 0 1 13 10zM56.878 48a1 1 0 0 1-.894-1.447 6.362 6.362 0 0 1 3.7-3.209 1 1 0 0 1 .632 1.9 4.369 4.369 0 0 0-2.543 2.205 1 1 0 0 1-.895.551zM58.879 51a1 1 0 0 1-1-1v-1a1 1 0 0 1 2 0v1a1 1 0 0 1-1 1z" fill="#393654" data-original="#f8664f" class=""></path></g></g></svg>